<svg width="960" height="198" viewBox="0 0 960 198" fill="none" xmlns="http://www.w3.org/2000/svg">
<mask id="mask0_219_2227" style="mask-type:alpha" maskUnits="userSpaceOnUse" x="0" y="0" width="960" height="198">
<path d="M0 50C0 22.3858 22.3858 0 50 0H910C937.614 0 960 22.3858 960 50V198H0V50Z" fill="#D9D9D9"/>
</mask>
<g mask="url(#mask0_219_2227)">
<path opacity="0.8" d="M-1.33867 0H958.662C1193.71 72.8777 1268.61 97.3591 958.662 120.331C648.719 143.304 308.238 112.127 -1.33867 190.889C-310.915 269.652 -223.996 142.322 -1.33867 0Z" fill="#F3B743" fill-opacity="0.6"/>
<path opacity="0.8" d="M-1.33867 0H958.662C1193.71 72.8777 1268.61 97.3591 958.662 120.331C648.719 143.304 308.238 79.3094 -1.33867 158.072C-310.915 236.834 -223.996 142.322 -1.33867 0Z" fill="#F3B743" fill-opacity="0.8"/>
<path d="M-1.33867 0H958.662C1193.71 72.8777 1268.61 97.3591 958.662 120.331C648.719 143.304 308.238 41.5691 -1.33867 120.331C-310.915 199.094 -223.996 142.322 -1.33867 0Z" fill="#F3B743"/>
</g>
</svg>
