<svg width="1235" height="198" viewBox="0 0 1235 198" fill="none" xmlns="http://www.w3.org/2000/svg">
<mask id="mask0_37_132" style="mask-type:alpha" maskUnits="userSpaceOnUse" x="0" y="0" width="1235" height="198">
<path d="M0 50C0 22.3858 22.3858 0 50 0H1185C1212.61 0 1235 22.3858 1235 50V198H0V50Z" fill="#D9D9D9"/>
</mask>
<g mask="url(#mask0_37_132)">
<path opacity="0.8" d="M-1.72217 0H1233.28C1535.66 72.8777 1632.01 97.3591 1233.28 120.331C834.549 143.304 396.535 112.127 -1.72217 190.889C-399.979 269.652 -288.162 142.322 -1.72217 0Z" fill="#F3B743" fill-opacity="0.6"/>
<path opacity="0.8" d="M-1.72217 0H1233.28C1535.66 72.8777 1632.01 97.3591 1233.28 120.331C834.549 143.304 396.535 79.3094 -1.72217 158.072C-399.979 236.834 -288.162 142.322 -1.72217 0Z" fill="#F3B743" fill-opacity="0.8"/>
<path d="M-1.72217 0H1233.28C1535.66 72.8777 1632.01 97.3591 1233.28 120.331C834.549 143.304 396.535 41.5691 -1.72217 120.331C-399.979 199.094 -288.162 142.322 -1.72217 0Z" fill="#F3B743"/>
</g>
</svg>
